<svg width="13" height="14" viewBox="0 0 13 14" fill="none" xmlns="http://www.w3.org/2000/svg">
<g clip-path="url(#clip0_368_137)">
<path d="M6.5 7.875C8.51855 7.875 10.1562 6.11133 10.1562 3.9375C10.1562 1.76367 8.51855 0 6.5 0C4.48145 0 2.84375 1.76367 2.84375 3.9375C2.84375 6.11133 4.48145 7.875 6.5 7.875ZM9.75 8.75H8.35098C7.7873 9.02891 7.16016 9.1875 6.5 9.1875C5.83984 9.1875 5.21523 9.02891 4.64902 8.75H3.25C1.45488 8.75 0 10.3168 0 12.25V12.6875C0 13.4121 0.545898 14 1.21875 14H11.7812C12.4541 14 13 13.4121 13 12.6875V12.25C13 10.3168 11.5451 8.75 9.75 8.75Z" fill="#555555"/>
</g>
<defs>
<clipPath id="clip0_368_137">
<rect width="13" height="14" fill="white"/>
</clipPath>
</defs>
</svg>
