<svg width="13" height="13" viewBox="0 0 13 13" fill="none" xmlns="http://www.w3.org/2000/svg">
<path d="M13 3.74247V3.12453L12.173 2.86923L12.1092 2.56751L12.6924 1.96697L12.3906 1.40415L11.5491 1.62174L11.3402 1.40415L11.5578 0.58603L11.0036 0.249498L10.3855 0.858737L10.075 0.765901L9.87187 0H9.21607L9.03616 0.765901L8.68504 0.858737L8.11339 0.249498L7.55045 0.568623L7.78549 1.37224L7.55045 1.61593L6.72344 1.39835L6.40424 1.95247L7.00491 2.56171L6.92076 2.86342L6.09375 3.08971L6.08504 3.71926L6.92076 3.93684L6.9904 4.28788L6.40714 4.86521L6.70893 5.40192L7.56786 5.18433L7.77679 5.43383L7.54174 6.21424L8.1192 6.55077L8.68214 5.95894L9.01875 6.04307L9.21317 6.86989L9.86897 6.8786L10.0634 6.04307L10.4 5.94153L11.0007 6.56818L11.5926 6.21714L11.3373 5.40482L11.5636 5.16983L12.3993 5.42513L12.6982 4.842L12.0917 4.29659L12.1556 3.94555L13 3.74247ZM9.54107 5.05378C8.63281 5.05378 7.89286 4.31689 7.89286 3.40594C7.89286 2.49498 8.62991 1.75809 9.54107 1.75809C10.4522 1.75809 11.1893 2.49498 11.1893 3.40594C11.1893 4.31979 10.4522 5.05378 9.54107 5.05378ZM11.6391 5.52957L13 5.95023V7.10779L11.4011 7.49654L11.2821 8.1551L12.4109 9.1792L11.8538 10.2787L10.2868 9.79424L9.86317 10.2352L10.3478 11.7583L9.23638 12.4169L8.10759 11.2419L7.4779 11.4334L7.11228 13L5.88192 12.9855L5.51629 11.4305L4.88661 11.268L3.83036 12.3821L2.74509 11.7525L3.18616 10.2874L2.78862 9.82035L1.17812 10.2294L0.606473 9.21982L1.70625 8.13479L1.56696 7.47333L0 7.06427L0.0145089 5.87771L1.56696 5.45124L1.73237 4.87971L0.603571 3.73667L1.20424 2.69806L2.7596 3.10712L3.20067 2.65164L2.7596 1.14305L3.81585 0.542513L4.88371 1.68556L5.54241 1.50859L5.87902 0H7.10938L7.44598 1.33162L6.79018 1.16046L6.60737 1.11114L6.51161 1.2765L6.19241 1.83062L6.09665 1.99308L6.23013 2.12653L6.72924 2.63133L6.72054 2.66034L6.02991 2.84892L5.85 2.89824L5.8471 3.08391L5.84129 3.45816C4.46295 3.75987 3.42411 4.98996 3.42411 6.46083C3.42411 8.1522 4.79665 9.52734 6.49129 9.52734C7.9567 9.52734 9.18125 8.50033 9.48594 7.1252L9.86897 7.131L10.0692 7.1339L10.1156 6.93952L10.2781 6.24325L10.3333 6.22584L10.8295 6.74224L10.9658 6.8844L11.1342 6.78576L11.7261 6.43472L11.8944 6.33318L11.8364 6.14461L11.6391 5.52957Z" fill="#555555"/>
</svg>
