<svg width="14" height="10" viewBox="0 0 14 10" fill="none" xmlns="http://www.w3.org/2000/svg">
<path d="M8.5929 0.515071C8.6696 0.485412 8.74592 0.499996 8.79819 0.548349C8.79833 0.548483 8.79848 0.548617 8.79862 0.548752L13.4624 4.92006C13.4626 4.92027 13.4628 4.92047 13.463 4.92067C13.4913 4.94779 13.5 4.97613 13.5 4.99972C13.5 5.02332 13.4913 5.05165 13.463 5.07878C13.4628 5.07898 13.4626 5.07918 13.4624 5.07938L8.79741 9.45183C8.74668 9.49937 8.67065 9.51486 8.59314 9.48504C8.55622 9.47084 8.53186 9.45026 8.51872 9.43286C8.50783 9.41845 8.5004 9.40153 8.5004 9.374V6.87441V6.37441H8.0004H4.22243C4.09812 6.37441 4.05573 6.28966 4.05573 6.24952V3.74993C4.05573 3.70978 4.09812 3.62503 4.22243 3.62503H8.0004H8.5004V3.12503V0.62545C8.5004 0.598612 8.50764 0.581852 8.51857 0.567362C8.53173 0.549917 8.55606 0.529315 8.5929 0.515071ZM4.8336 8.8325V9.49889H2.6668C1.43965 9.49889 0.5 8.57314 0.5 7.49931V2.50014C0.5 1.42631 1.43965 0.500554 2.6668 0.500554H4.8336V1.16694H2.6668C1.92996 1.16694 1.27787 1.73313 1.27787 2.50014V7.49931C1.27787 8.26632 1.92996 8.8325 2.6668 8.8325H4.8336Z" fill="#DB8181" stroke="#DB8181"/>
</svg>
